<?xml version="1.0" encoding="utf-8"?>
<!-- Generator: Adobe Illustrator 25.0.0, SVG Export Plug-In . SVG Version: 6.00 Build 0)  -->
<svg version="1.1" id="Lag_1" xmlns="http://www.w3.org/2000/svg" xmlns:xlink="http://www.w3.org/1999/xlink" x="0px" y="0px"
	 viewBox="0 0 100 100" style="enable-background:new 0 0 100 100;" xml:space="preserve">
<style type="text/css">
	.st0{fill:none;stroke:#F9B233;stroke-width:0.5;stroke-miterlimit:10;}
	.st1{fill:none;stroke:#F9B233;stroke-width:0.25;stroke-miterlimit:10;}
	.st2{fill:none;stroke:#F9B233;stroke-width:0.75;stroke-miterlimit:10;}
</style>
<path class="st0" d="M43.1,43.4c-2.4-0.1-4.9-0.3-7.3-0.4c-1-0.1-2.1-0.1-3.2,0c-0.9,0.1-1.7,0.3-2.6,0.5c-2.2,0.3-4.4,0-6.7,0.1
	c-1.5,0.1-3,0.4-4.6,0.5c-3.6,0.4-7.9,1-9.9-0.6c-0.3-0.2-0.8-0.3-1.2-0.4c-1-0.3-1.6-1-2-1.8c-1.7-3.5,0.4-7.7,3.8-11.2
	c0.8-0.8,1.6-1.6,2.6-2.3c1.2-0.8,2.5-1.5,3.9-2.2c1.4-0.7,2.8-1.5,4.2-2.2c0.7-0.4,1.5-0.8,2.3-1.1c1-0.4,2.1-0.8,3.1-1.1
	c2.6-0.8,5.2-1.6,7.9-2.3c2-0.5,4.1-0.9,6.1-1.3c1.1-0.2,2.2-0.4,3.3-0.6c2-0.3,4-0.3,5.9-0.1c2,0.2,3.2-0.5,5.2-0.5
	c2.5,0,5.1,0.1,7.4,0.5c0.4,0.1,0.8,0.1,1.2,0.2c0.4,0,0.8,0,1.1,0.1c2,0.1,3.8,0.6,5.6,1c2.8,0.7,5.5,1.5,8.2,2.2
	c2.4,0.7,4.8,1.4,5.9,2.9c1.4,2,3.3,3.5,4.5,5.6c1,1.8,1.9,3.7,1.8,5.8c-0.1,2-1.4,4.3-4,5.8c-3.1,1.8-7.4,2.2-11.3,2.5
	c-2.7,0.2-5.4,0.4-8.1,0.5c-1,0.1-2,0.1-2.9,0.1c-2,0-3.8-0.3-5.7-0.5C53.1,42.9,48.3,43.7,43.1,43.4z"/>
<path class="st1" d="M17.7,54.5c-0.9-1.2-2.6-1.3-4-1.2c-3.4,0.3-6.8,1.5-9.6,3.6c-0.6,0.5-1.3,1.1-1.3,1.9c0,0.6,0.5,1.2,1,1.4
	s1.2,0.3,1.8,0.3c0.5,0,0.9-0.1,1.4,0s0.9,0.4,1,0.9c0.1,0.6-0.3,1.1-0.5,1.6c-0.2,0.7,0.2,1.5,0.9,1.9s1.4,0.4,2.2,0.2
	c0.6-0.2,1.1-0.6,1.8-0.6c0.9-0.1,1.8,0.5,2.4,1.2c0.6,0.7,0.9,1.6,1.4,2.4c0.1,0.2,0.2,0.3,0.3,0.4c0.6,0.4,1.4-0.3,1.8-0.9
	c0.3-0.7,0.6-1.6,1.4-1.7c0.5-0.1,1,0.3,1.3,0.8c0.3,0.5,0.4,1,0.7,1.5c0.6,1.1,2,1.7,3.2,1.5c1.5-0.3,2.9-1.7,4.4-1.2
	c1.5,0.5,2,2.9,3.6,3.2c1,0.1,1.8-0.7,2.7-1.2c1.9-1.2,4.6-1.1,6.4,0.2c0.7,0.5,1.3,1.2,2.1,1.4c0.9,0.2,1.9-0.2,2.6-0.8
	s1.2-1.4,1.9-2.1c0.2-0.3,0.5-0.5,0.8-0.7c0.6-0.2,1.3,0,1.8,0.4s0.8,0.9,1.2,1.4c0.5,0.8,1.6,0.9,2.5,0.7s1.7-0.8,2.4-1.4
	c0.9-0.8,2-1.8,3.1-1.4c0.9,0.3,1.4,1.3,2.2,1.8c0.8,0.5,1.8,0.4,2.5-0.2s0.9-1.6,0.6-2.4c0.7-1,2.5-0.8,3,0.3
	c0.2,0.5,0.2,1.1,0.4,1.6c0.2,0.5,0.9,0.9,1.3,0.6c0.2-0.2,0.3-0.4,0.3-0.6c0-0.6-0.3-1.1-0.5-1.6c-0.2-0.5-0.3-1.2,0.1-1.6
	c0.2-0.2,0.5-0.3,0.8-0.4c0.7-0.2,1.4-0.3,2,0.1c0.8,0.5,0.9,1.6,1.4,2.3c0.7,0.9,2.1,1.2,3,0.7c0.7-0.4,1.4,0,2.2-0.2
	c0.8-0.3,1.6-1,1.4-1.8c-0.1-0.3-0.3-0.5-0.4-0.7c-0.2-0.5-0.2-1.1,0.1-1.5c0.3-0.4,0.9-0.6,1.4-0.5c0.8,0.2,1.2,1,1.8,1.5
	c0.7,0.5,1.6,0.7,2.4,0.7c0.4,0,0.8,0,1.2-0.1c0.7-0.3,1.1-1.1,1.2-1.8c0-0.8-0.3-1.5-0.7-2.2c-0.2-0.3-0.5-0.7-0.5-1.1
	c0.1-0.8,1.1-1.1,2-1.1c0.6,0,1.3,0.1,1.9,0.3c0.2-1.1-0.2-2.2-0.9-3c1.4-0.6,3-0.7,4.4-0.2c1-1,0.8-2.8-0.1-3.9
	c-0.9-1.1-2.4-1.6-3.8-1.9c-1.8-0.4-3.7-0.6-5.6-0.5"/>
<path class="st2" d="M85.8,66.2c-2.1,3.2-5.3,5.4-8.9,6.9c-3.6,1.5-7.4,2.2-11.2,2.7c-10,1.5-20.2,2.1-30.3,1.9
	c-7.7-0.2-15.9-1.1-21.6-6c-0.6-0.5-1.1-1-1.5-1.7c-0.7-1.2-1.6-2.3-1.9-3.6c-0.1-0.3-0.2-0.7-0.4-1"/>
<path class="st1" d="M53,59.5c2.1,1.7,4.2,3.4,6.3,5c-0.3-0.4,0.2-0.9,0.7-1.1c0.7-0.2,1.7,0,2,0.7s0.2,1.5-0.5,1.8
	c2-1.1,4.2-1.8,6.6-2c-0.5-0.6-1.7-0.9-1.6-1.6c0.1-0.5,0.6-0.7,1.1-0.8c0.8-0.2,1.9,0,2.1,0.8c0,0.1,0.1,0.3,0.2,0.4
	c0.1,0.1,0.2,0,0.4,0c1.4-0.2,2.9-0.4,4.3-0.6c-0.2-0.4-0.4-0.8-0.6-1.1c0.7-0.2,1.5,0,1.8,0.6c2.4-0.2,4.9-0.5,7.3-0.7
	c0.1,0,0.2,0,0.2-0.1s-0.2,0-0.1,0c1.2-0.1,2.3-0.2,3.5-0.3c-1.2-0.4-2.1-1.4-2.5-2.5c-0.8,0.2-1.6,0.4-2.4,0.2
	c-0.8-0.2-1.4-0.9-1.2-1.6c0.3-0.8,1.4-1,2.4-1c0.1-1,0.1-2.1,0.2-3.1"/>
<path class="st1" d="M11.4,53.9c0.3,1.4,1.8,2.2,3.2,2.6c3.9,1.2,8,1.6,12,1.9c2.3,0.2,4.9,0.2,6.8-1.2"/>
<path class="st1" d="M31,55.2c1.9,2,4.7,2.8,7.5,3.3c2.2,0.4,4.4,0.6,6.5,0.2c1.6-0.3,3-0.9,4.3-1.9c0.9-0.6,1-0.2,1.9,0.4
	c0.7,0.4,1.4,0.8,2.2,1.2c3,1.4,6.5,2,9.8,1.6c0.8-0.1,1.6-0.2,2.4-0.5c1.6-0.5,3.1-1.5,4.2-2.8"/>
<path class="st1" d="M65.4,54.8c3.7,1.2,7.8,2,11.6,1c1.8-0.5,3.5-1.4,5.2-2.3c0.7-0.4,1.4-0.8,1.9-1.3s0.8-1.4,0.6-2.2"/>
<path class="st1" d="M32.4,54.9c0.8,0.4,1.5,0.9,2.4,1.2c1,0.4,2,0.5,3,0.7c2,0.3,4,0.7,6,0.5c2-0.2,4-1.1,5.2-2.8"/>
<path class="st1" d="M50.9,55c3.3,2.2,7.3,3.2,11.3,2.8c0.7-0.1,1.5-0.2,2.2-0.5c1.2-0.4,2.2-1,3.1-1.9"/>
<path class="st1" d="M19.7,57.8c0.8,0.6,1.5,1.3,2.1,2.2c0.1-0.3,0.5-0.5,0.8-0.6c0.4,0,0.7,0.1,1,0.2c0.2,0.1,0.5,0.2,0.7,0.4
	c0.3,0.3,0.2,0.8,0,1.1s-0.6,0.5-0.9,0.8c1.7,1.5,3.2,3.1,4.5,5c0.1-0.2,0.3-0.4,0.5-0.5s0.5-0.1,0.7,0.2c0.3,0.5-0.8,1-0.7,1.6
	c1.8-0.7,3.8-1.2,5.8-1.4c-0.6-0.2-1.2-0.4-1.6-0.8c-0.5-0.4-0.8-1-0.6-1.6c0.2-0.7,1-1.1,1.8-1c0.2,0,0.4,0,0.5,0.1
	c0.2,0.1,0.2,0.3,0.3,0.5c0.3,0.7,0.5,1.4,0.8,2.2c2.1-0.5,4.3-0.8,6.4-0.9c-0.3-0.7-0.2-1.8,0.7-2c0.5-0.1,0.9,0.2,1.2,0.6
	c0.3,0.4,0.4,0.9,0.5,1.3c3-0.2,5.9-0.5,8.9-0.7c-0.8-2.5-1.8-5-2.9-7.4"/>
<path class="st1" d="M33.7,54.9c2.9,0.8,5.9,1.2,8.9,1.3c0.8,0,1.6,0,2.4-0.2c1-0.2,1.8-0.7,2.7-1.1"/>
<path class="st1" d="M46.3,54.4c-0.5,0.2-1,0.4-1.5,0.5c-3,1-6.4,0.8-9.3-0.5"/>
<path class="st1" d="M37.7,54.2c1.9,0.9,4.2,0.9,6.1-0.1"/>
<path class="st1" d="M42.7,53.9c-1.1,0-2.3,0-3.4,0.1"/>
<path class="st1" d="M65.8,55.8c-3.6,1-7.4,0.9-11-0.1c-0.8-0.2-1.5-0.5-2.2-1"/>
<path class="st1" d="M64.9,54.9c-2.6,0.7-5.4,0.8-8,0.3c-1-0.2-2.1-0.5-2.9-1.2"/>
<path class="st1" d="M54.9,53.9c0.7,0.3,1.4,0.6,2.2,0.8c0.9,0.2,1.8,0.1,2.6,0.1c1.5,0,2.9-0.1,4.3-0.4"/>
<path class="st1" d="M63,54.2c-1,0-2.1,0.1-3.1,0.1c-0.5,0-1,0-1.5,0c-0.5-0.1-1-0.3-1.4-0.6"/>
<path class="st1" d="M12.9,53.9c4.6,2.6,10.1,2.8,15.4,3c0.9,0,1.8,0,2.5-0.4"/>
<path class="st1" d="M29.6,55.5c-4.4,0.9-8.8-0.3-13.1-1.4c-0.4-0.1-0.9-0.3-1.1-0.6"/>
<path class="st1" d="M28.6,54.5c-3.9,0.6-8-0.1-11.5-1.8"/>
<path class="st1" d="M27.4,53.8c-1.8,0-3.6-0.1-5.4-0.3c-0.7-0.1-1.4-0.2-1.8-0.8"/>
<path class="st1" d="M59.2,53.5c0.5,0.1,1,0.1,1.5-0.1"/>
<path class="st1" d="M66.4,53.8c2.9,0.8,5.9,1.3,8.9,0.9c3.1-0.5,6-2,8.1-4.2"/>
<path class="st1" d="M67.2,53.2c1,0.2,1.9,0.5,2.9,0.6c4.2,0.6,8.6-0.7,11.8-3.5"/>
<path class="st1" d="M69.4,52.5c1.7-0.1,3.4,0.3,5.2,0.1c2.1-0.2,4.1-1.4,5.9-2.5"/>
<path class="st1" d="M72.2,51.7C74.6,52,76.9,51,79,50"/>
<path class="st1" d="M74.8,50.9c0.4,0.1,0.9,0,1.2-0.4"/>
<path class="st1" d="M14.1,49.3c-1.5,0.5-2.9,1.4-3.7,2.7c-0.1,0.1-0.1,0.2-0.1,0.3c0,0.2,0.2,0.3,0.4,0.4c1.2,0.5,2.7,0.5,4,0.2
	s2.6-0.7,4-0.9c4.5-0.6,9,1.4,13.6,1.3c3,0,6-1,9.1-0.7c1.8,0.1,3.5,0.7,5.2,0.8c0.7,0.1,1.5-0.1,2.2,0c0.5,0.1,1,0.5,1.5,0.6
	c1.3,0.3,2.7,0,3.9-0.3c1.8-0.5,3.5-1.3,5.3-1.1c1.5,0.1,2.8,0.9,4.3,0.8c0.6,0,1.1-0.2,1.7-0.4c1.5-0.5,2.9-0.9,4.3-1.6
	c2.4-1.1,4.8-2.7,7.4-2.4c1.4,0.2,2.7,0.9,4.2,1c1.9,0.1,3.7-1.2,4.2-2.9"/>
<path class="st1" d="M29.4,60.1c-0.2-0.1-0.4,0-0.6,0.2c-0.4,0.5-0.2,1.4,0.3,1.7c0.6,0.3,1.4,0,1.5-0.7s-0.5-1.3-1.1-1.2"/>
<path class="st1" d="M37.9,62.3c-0.1,0.4-0.1,0.9,0.1,1.3s0.8,0.5,1.2,0.2c0.3-0.3,0.2-0.8-0.1-1s-0.6-0.4-1-0.5"/>
<path class="st1" d="M48.9,59.1c-0.5-0.2-1.1-0.1-1.6,0.3s-0.6,1-0.5,1.5c0.4,0.1,0.8,0.2,1.3,0.1s0.8-0.3,1-0.7s-0.2-0.9-0.6-0.9"
	/>
<path class="st1" d="M58.9,61.2c-0.4-0.1-0.8,0.4-0.7,0.8c0.5,0.3,1.1,0.4,1.7,0.4c0.2-0.6-0.2-1.4-0.8-1.5"/>
<path class="st1" d="M71,58.6c-0.5,0.2-1,0.6-0.9,1.1c0.2,0.5,0.9,0.5,1.4,0.5c0.1,0,0.2,0,0.3-0.1c0.1-0.1,0-0.3,0-0.4
	c-0.2-0.4-0.5-0.7-0.9-0.8"/>
<path class="st1" d="M80,59.1c-0.7-0.1-1.3-0.1-1.9,0c0,0.5,0.3,1,0.7,1.2s1,0.1,1.4-0.2c-0.2-0.2-0.4-0.5-0.7-0.7"/>
<path class="st1" d="M50.9,56c0.9,0.9,2.1,1.3,3.3,1.7c2.4,0.8,4.9,1.4,7.5,1.2c2.5-0.1,5.1-1.1,6.8-3.1"/>
<path class="st1" d="M69.5,56.8c0-0.2,0.1-0.3,0.2-0.4"/>
<path class="st1" d="M3.9,58.1c-0.1,0.6,0.4,1.1,1,1.3s1.2,0.1,1.8,0.1s1.3,0.2,1.6,0.6C9,61,8.3,62.5,9,63.3
	c0.4,0.4,0.9,0.5,1.5,0.4c0.5,0,1-0.2,1.6-0.3c1-0.1,2,0.4,2.8,1s1.4,1.4,2,2.2"/>
<path class="st1" d="M51.7,68.2c0.7,0.6,1.7,1,2.6,1.1c0.2,0,0.5,0,0.7-0.1c0.3-0.1,0.5-0.5,0.8-0.7c0.9-1.1,2.5-1.4,3.9-1.2
	c1.4,0.2,2.7,1,3.7,1.9"/>
<path class="st1" d="M33.4,70.2c1.3-0.1,2.5-0.7,3.8-1.2s2.7-0.7,3.9-0.1"/>
<path class="st1" d="M90.1,52.1c0.8,0.2,1.6,0,2.3,0c0.8,0,1.7,0.3,1.9,1c0.2,0.7-0.2,1.5-0.1,2.3"/>
<path class="st1" d="M86.3,62.4c-0.1,0.9,0,1.9,0.2,2.8"/>
<path class="st1" d="M75.6,67.1c0.8,0,1.6,0,2.4-0.1c0.1,0,0.2,0,0.3-0.1c0.1-0.1,0.2-0.3,0.2-0.4c0.1-0.5,0.2-1.1,0.4-1.6
	s0.6-1,1.2-1"/>
<path class="st1" d="M10.4,61.8c1.3-1.2,2.7-2.4,4.2-3.4"/>
<path class="st1" d="M44.5,69.6c-0.5-1.5-1.3-2.9-2.3-4.1"/>
<path class="st1" d="M88.8,57.7c-1.2,0-2.3-0.6-3.1-1.4"/>
<path class="st1" d="M77.4,65.4c-0.3-0.8-0.9-1.5-1.7-1.9"/>
<path class="st1" d="M54.9,67.1c0.2-1.3,0.1-2.7-0.2-4"/>
<path class="st1" d="M30.7,56.6c0.3-0.1,0.5-0.3,0.8-0.5"/>
<path class="st1" d="M29.5,55.5c0.3,0,0.7-0.1,0.9-0.2"/>
<path class="st1" d="M31.1,55.5c-0.7-0.7-1.3-1.5-1.8-2.4"/>
<path class="st1" d="M32.6,55c-0.4-0.4-0.8-0.8-1.1-1.2c-0.1-0.2-0.2-0.3-0.3-0.4"/>
<path class="st1" d="M34,54.9c-0.4-0.1-0.7-0.3-1-0.6c-0.3-0.3-0.5-0.6-0.7-0.9"/>
<path class="st1" d="M35.7,54.5c-0.7-0.2-1.3-0.6-1.7-1.1"/>
<path class="st1" d="M38.1,54.3c-0.8-0.2-1.6-0.5-2.2-1"/>
<path class="st1" d="M43.6,54.2c0.5-0.1,1-0.3,1.3-0.8"/>
<path class="st1" d="M46.1,54.5c0.6-0.2,1.1-0.5,1.6-0.9"/>
<path class="st1" d="M47.6,54.8c0.5-0.3,0.9-0.7,1.2-1.2"/>
<path class="st1" d="M48.9,54.6c0.3-0.3,0.5-0.6,0.7-1"/>
<path class="st1" d="M49.2,56.8c0.7-0.7,1.3-1.3,2-2c0.2-0.2,0.3-0.3,0.4-0.5"/>
<path class="st1" d="M39.4,54c-0.3,0-0.6-0.1-0.8-0.3c-0.2-0.2-0.4-0.4-0.6-0.7"/>
<path class="st1" d="M41.9,52.7c-0.4,0-0.8,0-1.2,0c0.3,0.1,0.5,0.2,0.8,0.2c0,0,0.1,0,0.2,0s0.1-0.1,0-0.1"/>
<path class="st1" d="M20.3,52.8c-0.3-0.1-0.4-0.5-0.6-0.7"/>
<path class="st1" d="M27.3,53.8c0.7,0.1,1.4,0,2-0.4"/>
<path class="st1" d="M28.4,54.5c0.5,0,0.9-0.1,1.3-0.3"/>
<path class="st1" d="M24.9,52.4c-0.3,0.1-0.6,0.2-0.9,0.2c-0.2,0-0.4,0-0.5,0c-0.2-0.1-0.3-0.2-0.4-0.4"/>
<path class="st1" d="M72.5,51.8c-0.4,0-0.8-0.1-1.2-0.2"/>
<path class="st1" d="M79,50.1c0.4-0.2,0.7-0.4,1-0.6"/>
<path class="st1" d="M80.3,50.3c0.3-0.2,0.6-0.4,0.9-0.6"/>
<path class="st1" d="M81.8,50.4c0.1-0.1,0.3-0.2,0.4-0.3"/>
<path class="st1" d="M83.3,50.5c0.1-0.1,0.2-0.3,0.2-0.4"/>
<path class="st1" d="M75,50.9c-0.4,0-0.9,0-1.3,0c-0.1,0-0.3-0.1-0.4-0.1c-0.1,0-0.2,0-0.2-0.1"/>
<path class="st1" d="M75.8,50.8c0.8-0.4,1.5-0.8,2.2-1.2"/>
<path class="st1" d="M74.1,50.2c0.9,0.1,1.8-0.1,2.6-0.5"/>
<path class="st1" d="M75.1,49.8c0.2,0,0.4,0,0.6,0"/>
<path class="st1" d="M57,53.8c-0.2,0-0.3-0.1-0.4-0.2"/>
<path class="st1" d="M59.4,53.6c-0.2,0-0.4,0-0.6,0c-0.1,0-0.2-0.1-0.3-0.1c-0.2,0-0.3-0.1-0.5-0.1c-0.2,0-0.3-0.1-0.4-0.2"/>
<path class="st1" d="M60.6,53.5c0.7-0.1,1.3-0.2,1.9-0.5"/>
<path class="st1" d="M63.9,54.3c0.2,0,0.5-0.1,0.7-0.1"/>
<path class="st1" d="M65.6,54.8c-0.6-0.2-0.9-0.5-1.3-0.8c-0.2-0.1-0.3-0.1-0.5-0.1c-0.3,0.1-0.6,0.2-0.9,0.2"/>
<path class="st1" d="M66.6,54c-0.4-0.1-0.8-0.3-1-0.7"/>
<path class="st1" d="M65.6,55.8c0.4-0.1,0.7-0.2,1.1-0.4"/>
<path class="st1" d="M63.9,53.4c0,0.3,0.1,0.6,0.3,0.8"/>
<path class="st1" d="M59,52.8c0.4,0.1,0.9,0.1,1.3,0.1"/>
<path class="st1" d="M39.1,52.9c0.4,0.5,1,0.7,1.6,0.7c0.8,0,1.7-0.3,2.3-0.8"/>
<path class="st1" d="M42.6,53.9c0.6,0,1.2-0.2,1.6-0.7"/>
<path class="st1" d="M11.1,45.2c1.3,3.2,4.5,5.5,7.9,5.9c1.1,0.1,2.3,0.1,3.4,0c3-0.2,6.2-0.5,8.7-2.2c1.4-1,2.4-2.3,3.4-3.6"/>
<path class="st1" d="M84,41.3c-0.2,1,0.4,1.8,0.6,2.8c0.3,1.6-0.8,3.3-2.2,4.2c-1.4,0.9-3.1,1.1-4.8,1.2c-2.6,0.2-5.2,0.1-7.8-0.2
	c-2.4-0.3-5.2-1-6.4-3.1"/>
<path class="st1" d="M50.9,47.6c-2.7,2.4-6.2,4-9.8,4.5c-3.6,0.5-7.3-0.2-10.6-1.8c-0.2-0.1-0.5-0.3-0.7-0.4"/>
<path class="st1" d="M47.2,50.1c2.4,1.7,5.6,1.6,8.5,1.4c3.6-0.3,7.4-0.9,10.2-3.3"/>
<path class="st1" d="M13,44.6c0.8,1.6,2.3,2.9,4,3.6s3.5,1,5.3,1c0.8,0,1.6,0,2.4-0.2c0.8-0.1,1.6-0.4,2.4-0.7
	c1.1-0.4,2.1-0.8,3.1-1.3s1.8-1.4,2.2-2.5"/>
<path class="st1" d="M48.9,47.2c-2.1,1.2-4.5,2.1-6.8,2.7c-0.7,0.2-1.5,0.3-2.3,0.3c-0.8,0-1.5-0.1-2.3-0.2
	c-1.9-0.3-3.7-0.9-5.5-1.6"/>
<path class="st1" d="M63.8,47.1c-4.4,2.3-9.6,3-14.5,1.9"/>
<path class="st1" d="M65.2,45.4c0.9,1,2.2,1.6,3.4,1.9s2.6,0.5,3.9,0.5c1.8,0.1,3.6,0.1,5.3-0.2s3.4-1.2,4.7-2.5
	c0.2-0.2,0.3-0.4,0.4-0.6c0.1-0.3,0.1-0.7,0-1c-0.1-0.5-0.3-1.1-0.6-1.6"/>
<path class="st1" d="M32.4,20.3c-3.7,0.8-6.8,3.4-9.4,6.2c-1.3,1.4-2.5,2.9-3.2,4.6c-0.7,1.7-0.9,3.8,0,5.5c0.6,1.3,2.1,2.3,3.4,1.9
	c1.3-0.4,1.9-1.8,2.4-3c2.8-6.5,8-11.9,14.3-15"/>
<path class="st1" d="M53.2,17.6c-3.8,0.5-7.1,2.8-10,5.3c-1.4,1.3-2.8,2.6-3.6,4.3s-1.2,3.7-0.5,5.4c0.5,1.3,1.8,2.5,3.2,2.2
	c1.3-0.3,2-1.6,2.7-2.8C48.4,26,54,21,60.6,18.5"/>
<path class="st1" d="M71.1,21.3c-3.8,0.4-7.2,2.4-10.2,4.6c-1.5,1.1-2.8,2.3-3.8,3.8c-0.9,1.5-1.3,3.3-0.7,4.9
	c0.5,1.2,1.8,2.3,3.2,2c1.3-0.2,2.1-1.4,2.8-2.4c3.7-5.5,9.5-9.8,16.2-12"/>
<path class="st1" d="M18,45.6c-0.2,0.2-0.5,0.5-0.7,0.8c-0.2,0.3-0.2,0.7-0.1,1c0.1,0.3,0.5,0.6,0.8,0.5c0.4-0.1,0.6-0.6,0.7-1
	c0.1-0.3,0.4-1.5,0.2-1.8C18.7,44.8,18.2,45.4,18,45.6z"/>
<path class="st1" d="M21.3,47c0,0.2,0,0.4,0.1,0.6c0.2,0.3,0.5,0.5,0.9,0.5c0.1,0,0.2,0,0.3,0c0.1,0,0.1-0.1,0.1-0.2
	c0.1-0.2,0.1-0.4,0.2-0.7c0-0.3,0.1-0.6,0-0.9c-0.1-0.5-0.3-1.2-0.9-1C21.5,45.5,21.4,46.5,21.3,47z"/>
<path class="st1" d="M25.7,47.2c0.1,0.1,0.2,0.1,0.4,0.2c0.3,0.1,0.7,0.1,0.9,0c0.2-0.2,0.3-0.5,0.2-0.7c-0.1-0.4-0.8-1.3-1.2-1.2
	C25.5,45.6,25.4,46.9,25.7,47.2z"/>
<path class="st1" d="M35.2,47.8c0,0.3,0.2,0.7,0.5,0.8c0.1,0,0.3,0,0.4,0c0.2,0,0.3,0,0.4-0.1c0.1-0.1,0.2-0.2,0.2-0.4
	c0.1-0.4,0.3-1.8-0.3-1.9C35.8,46.3,35.2,47.4,35.2,47.8z"/>
<path class="st1" d="M39.5,49.2c0.2,0.1,0.3,0.1,0.5,0.1c0.2,0,0.3,0,0.5,0c0,0,0.1,0,0.1,0c0,0,0-0.1,0-0.1c0-0.5,0.1-2.2-0.8-1.9
	C39.4,47.4,39,48.8,39.5,49.2z"/>
<path class="st1" d="M43.2,48.3c0.1,0.2,0.3,0.2,0.5,0.2c0.2,0,0.5,0,0.6-0.2c0.1-0.1,0.1-0.3,0-0.4c-0.1-0.4-0.2-1.3-0.7-1.1
	C43.3,46.9,43,48,43.2,48.3z"/>
<path class="st1" d="M53.4,46.7c-0.2,0.2-0.2,0.5-0.2,0.8c0,0.4,0,0.8,0.3,1c0.2,0.1,0.5,0.2,0.7,0.1c0.1,0,0.1,0,0.2,0
	c0,0,0-0.1,0-0.2c0-0.4-0.1-0.8-0.1-1.1c-0.1-0.3-0.2-0.7-0.2-1c0,0,0-0.1-0.1-0.2c-0.1-0.1-0.3,0-0.4,0.2c-0.1,0.3-0.2,0.5-0.3,0.8
	"/>
<path class="st1" d="M57.1,48c0,0.1,0,0.3,0.1,0.4c0.1,0,0.1,0,0.2,0c0.2,0,0.3,0,0.5,0c0.1-0.7-0.2-1.5-0.5-2.2
	C57,46.4,57.1,47.5,57.1,48z"/>
<path class="st1" d="M70.4,45.9c-0.1,0.3-0.1,0.6-0.1,0.9c0,0,0,0.1,0,0.1s0.1,0.1,0.1,0.1c0.2,0.1,0.4,0.1,0.6,0.1
	c0.2,0,0.4-0.1,0.5-0.2c0.1-0.1,0.1-0.2,0.2-0.3c0.1-0.4,0.1-1.6-0.3-1.8C71,44.4,70.5,45.6,70.4,45.9z"/>
<path class="st1" d="M48.8,47.3c0.3-0.1,0.5-0.3,0.7-0.5c0.7-0.7,1.3-1.5,1.9-2.3"/>
<path class="st1" d="M50.8,47.7c0.3-0.2,0.6-0.6,0.8-0.9c0.5-0.8,1-1.7,1.5-2.5"/>
<path class="st1" d="M63.4,46.2c0-0.2,0-0.4-0.1-0.6c-0.1-0.3-0.2-0.5-0.4-0.8c0,0,0-0.1-0.1-0.1"/>
<path class="st1" d="M65.3,45.4c0-0.2-0.2-0.2-0.3-0.4c0-0.1-0.1-0.2-0.1-0.2"/>
<path class="st1" d="M59.8,46.7c0,0.1,0,0.2,0,0.3c0,0.1,0.1,0.2,0.1,0.3c0,0.1,0.1,0.2,0.2,0.2c0.1,0,0.2,0,0.3,0s0.2,0,0.2-0.1
	c0,0,0.1-0.1,0.1-0.1c0.1-0.2,0-0.5-0.2-0.7c-0.1-0.1-0.2-0.2-0.3-0.4c0,0-0.2-0.3-0.3-0.3C59.8,45.9,59.8,46.6,59.8,46.7z"/>
<path class="st1" d="M73.9,46.6c0,0.2,0,0.4,0.2,0.5c0.1,0.1,0.2,0.1,0.3,0.1c0.1,0,0.2,0,0.3,0c0.1,0,0.1,0,0.2,0
	c0.1-0.1,0.2-0.2,0.2-0.4c0.1-0.2,0.1-0.4,0.1-0.7c0-0.3-0.3-1.4-0.8-1.2C74.1,45.2,73.9,46.2,73.9,46.6z"/>
<path class="st1" d="M77.5,45.5c0,0.2,0,0.5,0.1,0.7s0.3,0.4,0.5,0.4c0.1,0,0.1,0,0.2,0c0.1,0,0.1-0.1,0.1-0.2c0.1-0.3,0-0.7-0.2-1
	c-0.1-0.1-0.4-0.6-0.5-0.5C77.4,44.9,77.5,45.3,77.5,45.5z"/>
<path class="st1" d="M84.1,46.5c0.5-0.1,1,0.1,1.3,0.5"/>
</svg>
