<?xml version="1.0" encoding="utf-8"?>
<!-- Generator: Adobe Illustrator 24.2.3, SVG Export Plug-In . SVG Version: 6.00 Build 0)  -->
<svg version="1.1" id="Lag_1" xmlns="http://www.w3.org/2000/svg" xmlns:xlink="http://www.w3.org/1999/xlink" x="0px" y="0px"
	 viewBox="0 0 100 100" style="enable-background:new 0 0 100 100;" xml:space="preserve">
<style type="text/css">
	.st0{fill:none;stroke:#F9B233;stroke-width:0.75;stroke-miterlimit:10;}
	.st1{fill:none;stroke:#000000;stroke-width:0.75;stroke-miterlimit:10;}
	.st2{fill:none;stroke:#F9B233;stroke-width:0.5;stroke-miterlimit:10;}
	.st3{fill:none;stroke:#F9B233;stroke-width:0.25;stroke-miterlimit:10;}
	.st4{fill:none;stroke:#F49739;stroke-width:0.25;stroke-miterlimit:10;}
</style>
<ellipse class="st0" cx="38.94" cy="35.84" rx="16.71" ry="2.7"/>
<line class="st0" x1="22.87" y1="35.94" x2="25.99" y2="70.44"/>
<line class="st0" x1="55.65" y1="36.84" x2="50.98" y2="78.11"/>
<line class="st0" x1="75.35" y1="22.32" x2="72.85" y2="50.82"/>
<ellipse class="st0" cx="60.87" cy="22.34" rx="14.61" ry="2.56"/>
<path class="st0" d="M23.6,43.64c3.73,0.5,8.44,0.93,13.9,0.96c6.76,0.04,12.49-0.54,16.77-1.17"/>
<line class="st0" x1="46.27" y1="22.34" x2="46.27" y2="33.14"/>
<path class="st0" d="M45.56,31.51c3.64,0.19,8.22,0.35,13.54,0.35c6.59-0.01,12.18-0.27,16.35-0.55"/>
<path class="st1" d="M101.53,77.84"/>
<path class="st2" d="M60.97,62.99c-0.59-2.66,0.61-5.44,2.4-7.48c2.39-2.72,5.87-4.44,9.48-4.68c0.63-0.04,1.27-0.04,1.89,0.08
	c0.75,0.14,1.46,0.45,2.16,0.76c2.63,1.15,5.4,2.4,7.03,4.76c0.97,1.4,1.45,3.08,1.79,4.75c0.14,0.71,0.26,1.44,0.25,2.16
	c-0.02,1.35-0.48,2.65-1.04,3.87c-1.21,2.67-2.98,5.18-5.49,6.67c-1.71,1.02-3.73,1.51-5.72,1.41"/>
<path class="st2" d="M56.56,64.78c1.24-0.86,2.67-1.57,4.18-1.54c0.45,0.01,0.91,0.09,1.36,0.04c0.49-0.05,0.95-0.24,1.43-0.35
	c1.73-0.39,3.5,0.26,5.16,0.91c1.12,0.44,2.26,0.89,3.26,1.56c1,0.67,1.88,1.6,2.27,2.74c0.14,0.41,0.21,0.85,0.16,1.28
	c-0.07,0.54-0.34,1.03-0.66,1.47c-0.99,1.33-2.53,2.17-4.13,2.61c-1.6,0.44-3.27,0.53-4.93,0.58c-2.15,0.06-4.33,0.08-6.42-0.46
	c-1.6-0.42-4.78-1.68-5.07-3.62C52.85,67.95,55.08,65.81,56.56,64.78z"/>
<path class="st3" d="M61.47,67.28c-0.62-0.51-1.45-0.77-2.26-0.7c-0.34,0.03-0.71,0.11-0.98-0.09c-0.21-0.15-0.3-0.42-0.52-0.55
	c-0.34-0.21-0.76,0.01-1.1,0.22c-0.32,0.21-0.65,0.42-0.91,0.71s-0.43,0.67-0.39,1.05c0.02,0.19,0.09,0.37,0.12,0.56
	c-0.08,0.06,0.14-0.19,0.12-0.28c0.75,0.13,1.53,0.06,2.24-0.2c0.36-0.13,0.71-0.31,1.1-0.38C59.59,67.51,60.79,67.52,61.47,67.28z"
	/>
<path class="st3" d="M58.65,66.1c0.34,0.1,0.69,0.01,1.04-0.04c0.35-0.05,0.73-0.06,1,0.16c0.07,0.05,0.12,0.12,0.2,0.16
	c0.16,0.1,0.38,0.08,0.54,0.17c0.09,0.05,0.16,0.12,0.23,0.18c0.12,0.11,0.24,0.2,0.38,0.28c0.12,0.07,0.27,0.14,0.4,0.1
	c0.22-0.06,0.29-0.32,0.33-0.55c0.03-0.2,0.07-0.42-0.02-0.61c-0.12-0.26-0.43-0.38-0.63-0.59c-0.24-0.27-0.27-0.68-0.54-0.92
	c-0.32-0.28-0.8-0.19-1.2-0.09c-0.56,0.14-1.11,0.29-1.67,0.45C58.02,65.02,57.8,65.86,58.65,66.1z"/>
<path class="st3" d="M64.75,69.71c-0.16-0.19-0.33-0.4-0.36-0.65s0.14-0.54,0.39-0.54c0.15,0,0.27,0.1,0.39,0.19
	c1.54,1.17,3.51,1.64,5.1,2.75c0.19,0.13,0.4,0.35,0.31,0.56c-0.94,0.34-1.93,0.54-2.93,0.59c-0.35,0.02-0.71,0.01-1.01-0.14
	c-0.39-0.2-0.63-0.6-0.85-0.97c-0.24-0.42-0.49-0.84-0.73-1.26c-0.14-0.25-0.29-0.52-0.26-0.81"/>
<path class="st3" d="M58.6,71.66c0.17,0.4,0.59,0.64,1.01,0.71c0.42,0.07,0.86-0.01,1.28-0.09c0.57-0.11,1.19-0.27,1.52-0.74
	c-0.19,0.45,0.06,0.99,0.47,1.25c0.41,0.26,0.92,0.29,1.41,0.23c0.41-0.05,0.82-0.17,1.2-0.35c-0.28-0.78-0.65-1.52-1.12-2.21
	c-0.22-0.32-0.45-0.64-0.54-1.01c-0.07-0.31-0.1-0.74-0.41-0.8c0.06,0.08-0.08,0.18-0.17,0.15s-0.17-0.11-0.27-0.13
	c-0.12-0.03-0.24,0.04-0.35,0.1c-0.68,0.4-1.34,0.75-1.98,1.23C60.44,70.14,58.54,71.5,58.6,71.66z"/>
<path class="st3" d="M64.84,64.8c0.06-0.17,0.11-0.39-0.02-0.51c-0.08-0.07-0.2-0.08-0.31-0.09c-0.32-0.02-0.64-0.03-0.96-0.05
	c-0.27-0.01-0.56-0.02-0.77,0.15c-0.23,0.19-0.25,0.58-0.04,0.8c0.1,0.1,0.24,0.16,0.32,0.28c0.09,0.13,0.08,0.3,0.08,0.45
	c0,0.17,0.02,0.34,0.06,0.5c0.06,0.28,0.21,0.59,0.49,0.63C64.39,67.07,64.68,65.25,64.84,64.8z"/>
<path class="st3" d="M67.72,64.94c0.15,0.05,0.31,0.1,0.43,0.2c0.12,0.1,0.2,0.28,0.14,0.43c-0.05,0.12-0.17,0.2-0.28,0.27
	c-0.63,0.39-1.28,0.79-2,0.94c-0.25,0.06-0.52,0.09-0.73,0.24c-0.13,0.09-0.22,0.23-0.36,0.3c-0.14,0.07-0.36,0.03-0.39-0.12
	c-0.01-0.06,0-0.12,0.02-0.17c0.2-0.72,0.49-1.97,1.05-2.5C66.04,64.1,67.19,64.77,67.72,64.94z"/>
<path class="st3" d="M69.01,67.65c0.59,0.02,1.17,0.27,1.76,0.21c0.48-0.04,0.99-0.29,1.43-0.08c0.29,0.13,0.47,0.43,0.54,0.73
	c0.22,0.92-0.39,1.82-0.98,2.56c-0.08,0.1-0.18,0.21-0.3,0.25c-0.09,0.02-0.19,0-0.29-0.02c-0.62-0.14-1.24-0.34-1.77-0.69
	c-0.21-0.14-0.41-0.31-0.62-0.44c-0.2-0.13-0.42-0.23-0.63-0.34c-0.39-0.19-2.64-0.97-2-1.47c0.28-0.22,1.06-0.31,1.43-0.42
	C68.04,67.77,68.51,67.65,69.01,67.65z"/>
<path class="st3" d="M70.46,65.6c0.31,0.12,0.62,0.28,0.79,0.57c0.17,0.29,0.16,0.67-0.03,0.94c-0.19,0.28-0.54,0.43-0.87,0.38
	c-0.16-0.03-0.32-0.1-0.47-0.15c-0.68-0.23-1.44-0.13-2.13,0.07c-0.69,0.21-1.35,0.52-2.05,0.71c-0.09,0.02-0.18,0.05-0.26,0.01
	c-0.12-0.05-0.17-0.22-0.13-0.35s0.14-0.23,0.25-0.31c0.73-0.59,1.66-0.83,2.51-1.21c0.43-0.19,0.78-0.44,1.17-0.7
	C69.67,65.3,69.99,65.42,70.46,65.6z"/>
<path class="st3" d="M57.11,68.5c-0.39,0.03-0.8,0-1.17,0.13c-0.37,0.13-0.7,0.5-0.62,0.88c0.07,0.32,0.38,0.51,0.66,0.67
	c0.48,0.27,0.96,0.54,1.44,0.8c0.14,0.08,0.29,0.16,0.45,0.16c0.14,0,0.28-0.06,0.41-0.12c0.86-0.4,1.68-0.9,2.43-1.48
	c0.41-0.31,0.8-0.65,1.25-0.89c0.38-0.2,0.8-0.32,1.22-0.45c-0.05-0.38-0.4-0.69-0.78-0.7c-0.5-0.01-0.94,0.34-1.42,0.44
	c-0.32,0.07-0.62,0.03-0.94,0.03C59.03,67.98,58.11,68.43,57.11,68.5z"/>
<path class="st3" d="M63.53,67.86c-0.08,0.14,0.04,0.33,0.2,0.37s0.32-0.02,0.47-0.09s0.3-0.14,0.47-0.13
	c0.09,0.01,0.2,0.02,0.23-0.06c0.01-0.02,0.01-0.05,0-0.07c-0.06-0.25-0.37-0.34-0.63-0.38c-0.29-0.05-0.58-0.09-0.88-0.14
	c-0.07-0.01-0.18,0-0.18,0.08c0.11,0.11,0.22,0.22,0.33,0.33c0.07,0.07,0.45,0.14,0.54,0.1c-0.05-0.02-0.11-0.03-0.16-0.05
	C63.92,67.78,63.54,67.91,63.53,67.86z"/>
<path class="st2" d="M52.94,70.3c-0.05,2.49,1.36,4.76,2.91,6.71c1.33,1.66,2.93,3.28,4.99,3.81c0.65,0.17,1.33,0.22,2,0.28
	c0.7,0.06,1.4,0.11,2.1,0.05c0.81-0.07,1.6-0.31,2.36-0.59c1.49-0.56,2.93-1.35,4.02-2.52c0.47-0.5,0.87-1.06,1.26-1.63
	c0.36-0.52,0.71-1.05,1-1.6c0.85-1.6,1.22-3.45,1.05-5.25"/>
<path class="st3" d="M63.36,59.62c-0.02-0.23,0.11-0.45,0.26-0.64c0.25-0.33,0.57-0.61,0.93-0.82"/>
<path class="st3" d="M64.93,55.72c-0.05,0.41,0.01,0.84,0.18,1.22"/>
<path class="st3" d="M66.4,56.12c0.03-0.39,0.27-0.75,0.62-0.94"/>
<path class="st3" d="M66.71,57.09c0.23-0.44,0.7-0.75,1.19-0.8"/>
<path class="st3" d="M66.16,58.35c-0.11,0.32-0.02,0.7,0.22,0.94"/>
<path class="st4" d="M65.78,58.22c0.15,0,0.31-0.01,0.4-0.12c0.03-0.04,0.05-0.09,0.07-0.14c0.08-0.22,0.16-0.44,0.24-0.67
	c0.01-0.04,0.03-0.08,0.02-0.12c-0.01-0.05-0.04-0.09-0.06-0.13c-0.08-0.13-0.12-0.29-0.11-0.44c-0.19-0.04-0.36,0.11-0.51,0.24
	c-0.12,0.1-0.25,0.19-0.39,0.27c-0.12,0.07-0.17-0.09-0.28-0.04c-0.11,0.04-0.13,0.16-0.2,0.23c-0.11,0.13-0.28,0.27-0.35,0.43
	C64.34,58.42,65.41,58.22,65.78,58.22z"/>
<path class="st2" d="M18.29,76.76c-0.44-0.28-0.7-0.82-0.66-1.34c0.03-0.38,0.22-0.74,0.24-1.13c0.01-0.19-0.02-0.38,0.05-0.55
	c0.05-0.12,0.15-0.21,0.25-0.3c0.4-0.36,0.84-0.69,1.3-0.97"/>
<path class="st2" d="M28.47,70.62c1.64-0.4,3.48,0.26,4.5,1.61c0.19,0.25,0.35,0.52,0.51,0.79c0.15,0.26,0.31,0.52,0.39,0.8
	c0.1,0.34,0.1,0.7,0.11,1.06c0.04,0.87,0.18,1.74,0.32,2.6c0.04,0.23,0.08,0.47,0.22,0.65c0.06,0.09,0.15,0.16,0.19,0.26
	c0.11,0.22,0.01,0.48-0.13,0.69c-0.43,0.66-1.18,1.08-1.95,1.26c-0.77,0.18-1.57,0.15-2.36,0.09c-0.87-0.07-1.74-0.17-2.6-0.31"/>
<path class="st3" d="M20.96,73.82c0.27,0.05,0.61,0.12,0.69,0.39c0.1-0.37,0.19-0.74,0.29-1.11c0.08-0.3,0.16-0.61,0.38-0.83
	c0.07-0.07,0.15-0.13,0.21-0.2c0.16-0.21,0.13-0.5,0.1-0.76c-0.48-0.08-0.96-0.03-1.44,0.02c-0.53,0.05-1.27,0.58-1.44,1.11
	C19.46,73.31,20.23,73.68,20.96,73.82z"/>
<path class="st3" d="M19.29,72.63c-0.65-0.37-1.49-0.37-2.15-0.02c-0.39,0.21-0.78,0.56-1.22,0.49c0.21-0.2,0.42-0.4,0.64-0.6
	c0.49-0.44,1.02-0.87,1.63-1.14c0.61-0.26,1.33-0.34,1.94-0.07"/>
<path class="st3" d="M20.66,71.12c0.14-0.1,0.2-0.28,0.22-0.45c0.03-0.17,0.03-0.34,0.08-0.51c0.1-0.3,0.37-0.51,0.64-0.67
	c0.37-0.22,0.76-0.39,1.16-0.55c-0.13,0.25-0.28,0.49-0.45,0.71c-0.08,0.11-0.17,0.21-0.23,0.33c-0.16,0.33-0.12,0.76-0.4,0.99"/>
<path class="st3" d="M22.57,69.91c0.66-0.27,1.25-0.69,1.72-1.23c0.13,0.09,0.26,0.18,0.39,0.26c0.1,0.07,0.21,0.14,0.29,0.24
	c0.24,0.29,0.15,0.78-0.17,0.98"/>
<path class="st3" d="M22.05,71.13c0.39-0.42,0.92-0.7,1.48-0.8c0.44-0.07,0.88-0.03,1.32,0c0.38,0.03,0.76,0.07,1.14,0.1
	c0.27,0.02,0.55,0.05,0.82-0.01c0.19-0.04,0.37-0.13,0.55-0.19s0.39-0.11,0.58-0.06s0.36,0.2,0.38,0.4
	c-0.56,0.09-1.14,0.18-1.64,0.45c-0.2,0.11-0.39,0.24-0.59,0.33c-0.15,0.07-0.32,0.1-0.48,0.14c-0.91,0.18-1.87,0.17-2.78-0.03"/>
<path class="st3" d="M21.34,71.48c-0.24,0.26-0.27,0.65-0.29,1.01c-0.01,0.18-0.02,0.36-0.03,0.53"/>
<path class="st3" d="M22.8,71.16c0.48-0.05,0.96-0.13,1.42-0.24"/>
<path class="st3" d="M23.67,70.01c0.25-0.19,0.46-0.41,0.65-0.66"/>
<path class="st3" d="M20.03,71.72c-0.45-0.01-0.9-0.01-1.36,0.01"/>
<path class="st3" d="M19.01,73.8c-0.03,0.14,0.03,0.29,0.14,0.38c0.11,0.09,0.27,0.11,0.4,0.06"/>
<path class="st3" d="M19.23,75.06c0.06,0.25,0.36,0.4,0.6,0.31"/>
<path class="st3" d="M20.88,75.93c0.24,0.11,0.53,0.12,0.78,0.01"/>
<path class="st3" d="M22,74.83c-0.03,0.11,0.04,0.23,0.13,0.29c0.1,0.06,0.21,0.07,0.33,0.07c0.1,0,0.2-0.01,0.27-0.07
	s0.08-0.2-0.01-0.25"/>
<path class="st3" d="M23.58,72.79c0.21,0.14,0.46,0.22,0.71,0.22c0.03,0,0.05,0,0.08-0.02c0.05-0.03,0.04-0.12,0.01-0.17
	c-0.04-0.05-0.09-0.08-0.13-0.14"/>
<path class="st3" d="M26.12,72.05c0.21,0.07,0.43,0.09,0.65,0.05c0-0.02,0-0.04,0-0.06c-0.08-0.02-0.15-0.06-0.2-0.11"/>
<path class="st3" d="M24.39,74.37c0.22,0.04,0.44,0.02,0.65-0.05c0.04-0.01,0.08-0.04,0.08-0.08c0-0.03-0.02-0.05-0.05-0.06
	c-0.03-0.03-0.07-0.05-0.1-0.08"/>
<path class="st3" d="M28.29,71.5c0.17,0.07,0.36,0.1,0.55,0.08c0.08-0.01,0.17-0.03,0.2-0.11c0.03-0.08-0.03-0.16-0.09-0.23"/>
<path class="st3" d="M28.05,72.83c0.13,0,0.27,0,0.4,0c0.02,0,0.05,0,0.07-0.02c0.02-0.01,0.02-0.04,0.03-0.06
	c0.02-0.07,0.04-0.15,0.05-0.22"/>
<path class="st3" d="M28.12,73.78c0.09,0.11,0.25,0.16,0.39,0.13c0.14-0.03,0.26-0.15,0.29-0.29"/>
<path class="st3" d="M30.34,72.06c0.13,0.2,0.37,0.32,0.61,0.32c0.12,0,0.27-0.09,0.22-0.2"/>
<path class="st3" d="M24.54,75.7c0.16,0.2,0.51,0.19,0.66-0.02"/>
<path class="st3" d="M28.54,75.14c0.11,0.04,0.21,0.1,0.31,0.12c0.11,0.02,0.24,0,0.31-0.09s0.03-0.25-0.09-0.26"/>
<path class="st3" d="M30.88,74.3c0.05,0.14,0.16,0.27,0.31,0.31s0.33-0.05,0.35-0.2"/>
<path class="st3" d="M32.21,73.76c0.18,0.23,0.57,0.22,0.74,0"/>
<path class="st3" d="M24.42,76.7c0.15,0.11,0.35,0.15,0.54,0.12c0.12-0.02,0.25-0.1,0.25-0.22"/>
<path class="st3" d="M29.37,76.67c0.06,0.07,0.13,0.14,0.22,0.18c0.09,0.04,0.2,0.03,0.26-0.05"/>
<path class="st3" d="M31.73,75.76c0.09,0.06,0.19,0.13,0.28,0.19c0.03,0.02,0.07,0.05,0.11,0.03c0.05-0.02,0.05-0.09,0.04-0.14
	c-0.01-0.08-0.03-0.17-0.04-0.25"/>
<path class="st3" d="M26.1,77.38c0.1,0.03,0.2,0.06,0.3,0.04s0.19-0.11,0.18-0.21"/>
<path class="st3" d="M28.12,78.93c0.13,0.11,0.26,0.2,0.39,0.29c0.13,0.09,0.31,0.17,0.45,0.1c0-0.06,0-0.12,0-0.18"/>
<path class="st3" d="M29.94,77.9c0.28,0.06,0.57,0.07,0.85,0.01"/>
<path class="st3" d="M32.44,77.67c0.08,0.05,0.18,0.09,0.28,0.1c0.06,0.01,0.13,0,0.18-0.03c0.05-0.03,0.09-0.1,0.06-0.16"/>
<path class="st3" d="M32.42,78.79c0,0.05,0,0.1,0,0.15c0.16,0.04,0.33,0.04,0.48,0"/>
<path class="st2" d="M25.34,78.46c-0.77-0.6-1.56-1.21-2.51-1.45c-0.5-0.12-1.03-0.13-1.55-0.14c-1.6-0.03-3.22-0.05-4.77,0.31
	c-0.51,0.12-1.02,0.28-1.48,0.53c-0.28,0.15-0.54,0.34-0.82,0.49c-0.38,0.2-0.81,0.33-1.17,0.57c-0.58,0.37-0.97,0.97-1.44,1.48
	c-0.9,0.97-2.19,1.7-2.59,2.96c0.34,0.57,1.11,1.19,1.75,1.38s1.31,0.24,1.97,0.37c1.29,0.26,2.51,0.81,3.8,1.08
	c1.89,0.4,3.85,0.2,5.77,0c0.81-0.09,1.63-0.18,2.4-0.47c0.84-0.32,1.57-0.87,2.25-1.47c0.18-0.16,0.37-0.34,0.47-0.56
	c0.1-0.21,0.11-0.45,0.11-0.68c0.01-0.68-0.04-1.35-0.17-2.02"/>
<path class="st3" d="M25.76,80c0.25,0.09,0.54,0.02,0.76-0.12c0.23-0.14,0.41-0.34,0.58-0.54c0.08-0.09,0.16-0.19,0.18-0.3
	c0.04-0.24-0.34-0.53-0.3-0.77c-0.35,0.27-0.72,0.55-1.15,0.61c-0.16,0.02-0.32,0.01-0.48,0.02c-0.62,0.03-1.22,0.63-1.6,1.12
	c-0.38-0.64-1.18-0.87-1.91-0.98c-0.73-0.11-1.72-0.06-2.3-0.51c-0.09,0.47,0.09,1.1,0.49,1.4c0.35,0.27,0.89,0.21,1.31,0.36
	c0.45,0.15,0.89,0.34,1.36,0.35"/>
<path class="st3" d="M20.35,80.26c-0.54-0.04-1.11,0.09-1.52,0.44c-0.14,0.12-0.25,0.26-0.38,0.4c-0.2,0.22-0.51,0.52-0.73,0.72
	c0.7,0.15,1.42,0.21,2.13,0.19c0.28-0.01,0.55-0.03,0.82-0.09c0.49-0.12,0.94-0.38,1.38-0.63"/>
<path class="st3" d="M13.26,80.09c-0.05,0.04-0.12,0.03-0.19,0.04c-0.06,0.01-0.14,0.06-0.12,0.13c0.01,0.03,0.03,0.05,0.05,0.07
	c0.12,0.11,0.25,0.21,0.39,0.29"/>
<path class="st3" d="M14.67,78.82c-0.16-0.05-0.36,0.06-0.4,0.23s0.08,0.35,0.24,0.39"/>
<path class="st3" d="M12.15,80.95c-0.08-0.01-0.16-0.03-0.23-0.01s-0.15,0.08-0.15,0.16c0,0.11,0.12,0.18,0.23,0.19
	s0.23,0.01,0.31,0.08"/>
<path class="st3" d="M10.75,82.04c-0.11,0.14-0.12,0.35-0.02,0.5c0.1,0.15,0.3,0.22,0.47,0.18"/>
<path class="st3" d="M22.12,83.94c0.62-0.23,1.24-0.76,1.47-1.4c0.29-0.81-0.57-0.89-1.12-1.21c-0.09,0.43-0.53,1.09-0.24,1.42"/>
<path class="st3" d="M25.2,80.86c0.29,0.15,0.58,0.31,0.83,0.53c0.24,0.22,0.43,0.52,0.45,0.85c0.02,0.31-0.12,0.62-0.33,0.85
	s-0.47,0.41-0.75,0.56c0.02-0.21-0.27-0.48-0.36-0.68c-0.06-0.13-0.12-0.26-0.23-0.35c-0.1-0.09-0.23-0.13-0.35-0.17
	c-0.25-0.08-0.5-0.17-0.75-0.25"/>
<path class="st3" d="M27.52,80.4c-1.25-0.29-2.61-0.49-3.8,0c-0.19,0.08-0.38,0.17-0.58,0.15c1.79-0.08,3.9,0.28,5.47,1.15
	c0.19-0.03,0.51-0.34,0.44-0.52c-0.07-0.18-0.24-0.29-0.4-0.38C28.31,80.6,27.9,80.49,27.52,80.4z"/>
<path class="st3" d="M16.81,78.76c-0.14,0.05-0.27,0.12-0.39,0.21c-0.02,0.02-0.05,0.03-0.05,0.06c-0.01,0.05,0.05,0.09,0.1,0.11
	c0.25,0.09,0.5,0.18,0.75,0.27"/>
<path class="st3" d="M15.82,79.99c-0.16-0.02-0.33-0.01-0.48,0.03c0.01,0.16,0.12,0.3,0.27,0.35"/>
<path class="st3" d="M18.29,79.64c-0.1,0.01-0.2,0.05-0.28,0.12c-0.02,0.02-0.04,0.04-0.04,0.07c0,0.05,0.06,0.07,0.1,0.08
	c0.18,0.04,0.37,0.08,0.55,0.12"/>
<path class="st3" d="M17.98,77.88c0.08-0.29,0.37-0.52,0.68-0.52"/>
<path class="st3" d="M22.15,77.59c-0.12,0-0.24,0-0.37,0c-0.03,0-0.07,0-0.09,0.02c-0.03,0.03-0.02,0.09-0.01,0.13
	c0.02,0.1,0.05,0.19,0.07,0.29"/>
<path class="st3" d="M23.29,78.26c-0.19,0-0.38,0-0.58,0c-0.02,0-0.05,0-0.07,0.02c-0.03,0.03-0.01,0.08,0,0.11
	c0.03,0.06,0.05,0.11,0.08,0.17"/>
<path class="st3" d="M18.66,82.46c-0.17-0.05-0.37,0.1-0.37,0.28c0.13,0.01,0.26,0.05,0.37,0.12"/>
<path class="st3" d="M16.89,80.62c-0.17-0.06-0.38,0.1-0.36,0.28c0.17,0,0.34,0,0.51,0"/>
<path class="st3" d="M13.82,82.18c-0.08-0.08-0.22-0.05-0.28,0.04s-0.03,0.22,0.06,0.29c0.09,0.06,0.22,0.06,0.3-0.01"/>
<path class="st3" d="M13.44,83.97c-0.12-0.03-0.26,0.08-0.26,0.21c0.22,0.08,0.44,0.16,0.66,0.24"/>
<path class="st3" d="M16.08,82.9c-0.18-0.06-0.39,0.05-0.45,0.23c0.21,0.04,0.41,0.11,0.59,0.21"/>
<path class="st3" d="M16.62,84.49c-0.06-0.06-0.17,0.03-0.14,0.12c0.03,0.08,0.12,0.12,0.2,0.15c0.19,0.06,0.39,0.11,0.58,0.14"/>
<path class="st3" d="M19.64,83.69c-0.13-0.03-0.27-0.07-0.39-0.03c-0.13,0.04-0.22,0.2-0.16,0.31c0.08,0.14,0.3,0.1,0.45,0.17"/>
<path class="st3" d="M17.81,85.35c0.17,0.08,0.36,0.11,0.55,0.07"/>
<path class="st3" d="M20.94,84.63c-0.11,0.11-0.23,0.23-0.34,0.34c0.22,0.07,0.44,0.14,0.67,0.21"/>
<path class="st3" d="M23.81,83.85c-0.04,0.08-0.08,0.16-0.12,0.23c0.18,0.09,0.41,0.1,0.6,0.02"/>
<path class="st3" d="M23.67,84.85c-0.09,0.03-0.14,0.14-0.1,0.23s0.15,0.12,0.23,0.08"/>
<path class="st3" d="M11.73,83.54c-0.13-0.07-0.32,0.04-0.32,0.19s0.19,0.26,0.32,0.18"/>
<path class="st3" d="M10.2,83.23c-0.03,0.13-0.05,0.26-0.08,0.39c-0.01,0.05,0.04,0.12,0.06,0.08"/>
<path class="st3" d="M19.43,81.44c0.88,0.1,1.72-0.62,2.58-0.44"/>
<path class="st3" d="M21.95,81.46c-0.25,0.26-0.37,0.61-0.41,0.97c-0.06,0.51,0.1,1.1,0.55,1.34"/>
<path class="st3" d="M23.68,81.25c0.64,0.11,1.24,0.47,1.64,0.98"/>
<path class="st3" d="M24.94,79.85c0.38-0.14,0.75-0.32,1.1-0.53"/>
<path class="st3" d="M22.73,80.02c-0.53-0.23-1.1-0.39-1.67-0.48"/>
<path class="st2" d="M50.98,78.11c-2.16,0.61-5.15,1.21-8.73,1.2c-3.01,0-5.58-0.43-7.54-0.91"/>
<path class="st2" d="M51.77,74.17c0.55,0.02,1.1,0.05,1.65,0.07"/>
<path class="st0" d="M48.56,47.65c0.27,3.32-0.5,6.62-1.12,9.89c-1.12,5.9-1.77,11.89-1.95,17.9"/>
<path class="st0" d="M68.95,36.15c-0.09,4.12-0.58,8.23-1.47,12.25"/>
</svg>
