<?xml version="1.0" encoding="utf-8"?>
<!-- Generator: Adobe Illustrator 24.2.3, SVG Export Plug-In . SVG Version: 6.00 Build 0)  -->
<svg version="1.1" id="Lag_1" xmlns="http://www.w3.org/2000/svg" xmlns:xlink="http://www.w3.org/1999/xlink" x="0px" y="0px"
	 viewBox="0 0 100 100" style="enable-background:new 0 0 100 100;" xml:space="preserve">
<style type="text/css">
	.st0{fill:none;stroke:#F9B233;stroke-width:0.75;stroke-miterlimit:10;}
	.st1{fill:none;stroke:#F9B233;stroke-width:0.5;stroke-miterlimit:10;}
	.st2{fill:none;stroke:#F9B233;stroke-width:0.25;stroke-miterlimit:10;}
</style>
<path class="st0" d="M15.21,52.25c-0.94,4.83,0.96,9.76,3.27,14.11c1.27,2.39,2.7,4.74,4.68,6.58c2.99,2.78,6.98,4.18,10.86,5.46
	c1.55,0.51,3.11,1.01,4.71,1.36c2.74,0.59,5.56,0.7,8.36,0.79c5.89,0.18,11.93,0.23,17.47-1.78c6.59-2.4,12.04-7.77,14.51-14.34"/>
<path class="st1" d="M35.42,65.68c-5.31-0.67-10.23-3.94-12.92-8.57c-0.68-1.18-1.24-2.45-2.17-3.44"/>
<path class="st1" d="M60.94,66.54c5.44-0.21,10.48-2.77,15.32-5.28"/>
<path class="st1" d="M36.3,66.41c-0.07-0.48-0.06-1.01,0.25-1.48c0.31-0.46,0.98-0.82,1.51-0.67c0.21,0.06,0.41,0.2,0.64,0.14
	c0.31-0.07,0.45-0.4,0.56-0.66c0.46-1.01,1.78-1.78,2.98-1.73c0.2,0.01,0.41,0.03,0.59-0.07c0.2-0.11,0.27-0.33,0.35-0.52
	c0.25-0.57,0.88-1.08,1.56-1.15c0.69-0.07,1.33,0.39,1.22,0.98c0.6,0.04,1.11-0.47,1.57-0.87s1.26-0.73,1.61-0.35
	c0.17,0.19,0.15,0.48,0.32,0.67c0.23,0.24,0.69,0.21,1.07,0.07c0.38-0.13,0.73-0.35,1.12-0.44c0.92-0.21,1.77,0.54,1.51,1.32
	c0.74-0.02,1.35,0.52,1.29,1.16s-0.78,1.26-1.53,1.32c0.2-0.19-0.22-0.39-0.45-0.23s-0.3,0.42-0.44,0.64c-0.4,0.64-1.59,0.79-2,0.26
	c-0.31,0-0.58,0.26-0.7,0.52c-0.12,0.26-0.15,0.53-0.28,0.79c-0.28,0.51-0.93,0.82-1.52,1.08c-0.37,0.16-0.76,0.33-1.14,0.31
	c-0.38-0.02-0.73-0.3-0.61-0.63c-0.63,0.03-1.21,0.46-1.64,0.9c-0.43,0.45-0.79,0.95-1.32,1.31c-0.09,0.06-0.19,0.12-0.3,0.11
	c-0.15-0.01-0.23-0.13-0.29-0.25c-0.15-0.3-0.3-0.6-0.45-0.9c-0.3,0.2-0.61,0.39-0.91,0.59c-0.29-0.48-1.14-0.59-1.73-0.23
	c-0.51,0.32-0.74,0.86-1.14,1.28c-1.59,1.68-3.01-0.01-3.86-1c-0.41-0.48-0.52-1.17-0.03-1.79C34.35,66.61,36.19,65.7,36.3,66.41z"
	/>
<path class="st2" d="M41.08,67.34c-0.12-0.49-0.07-1.02,0.15-1.47"/>
<path class="st2" d="M44.48,65.65c0.66-0.47,1.45-0.76,2.26-0.83c0.3-0.61,0.87-1.1,1.52-1.3"/>
<path class="st1" d="M29.6,53.28c-0.53,0.24-1.06,0.48-1.59,0.72c-0.23,0.1-0.46,0.21-0.71,0.2c-0.34-0.01-0.64-0.21-0.94-0.37
	c-1.45-0.78-3.2-0.63-4.85-0.65c-2.22-0.03-4.02-0.3-6.12-1.02c-0.04-0.56-0.62-0.91-1.16-1.06s-1.14-0.2-1.57-0.56
	c-0.66-0.55-0.64-1.57-0.42-2.4c0.45-0.03,0.77-0.48,0.82-0.93c0.05-0.45-0.12-0.88-0.27-1.3c-0.49,0.2-1.09-0.14-1.26-0.64
	s0.03-1.07,0.39-1.46c0.43-0.45,1.07-0.69,1.43-1.2c0.36-0.51,0.36-1.24,0-1.74c-0.26-0.37-0.67-0.6-0.93-0.97
	c-0.49-0.71-0.17-1.83,0.63-2.17c0.43-0.18,0.99-0.19,1.26-0.57c0.12-0.17,0.16-0.38,0.19-0.59c0.13-0.96,0.07-1.94-0.16-2.88
	c-0.05-0.2-0.11-0.43-0.01-0.61c0.14-0.26,0.49-0.29,0.78-0.29c0.81,0,1.61,0,2.42,0c0.31,0,0.64,0,0.93-0.1
	c1.05-0.35,1.33-1.68,1.43-2.79c0.1-1.1,0.34-2.43,1.37-2.84c0.77-0.31,1.64,0.08,2.35,0.5c0.71,0.43,1.46,0.93,2.29,0.89
	c0.45-1.83,1.29-3.56,2.44-5.05c0.38-0.49,0.94-1,1.53-0.83c0.68,0.2,0.81,1.09,0.85,1.79s0.27,1.61,0.98,1.68
	c0.85,0.09,1.38-1.16,2.23-1.08c0.46,0.04,0.78,0.47,1.04,0.85c0.52,0.78,1.03,1.55,1.55,2.33"/>
<path class="st1" d="M31.07,50.65c-3.96-0.16-7.9-0.74-11.74-1.73c-1.12-0.29-2.27-0.63-3.18-1.35c0.29-0.4,0.58-0.8,0.71-1.27
	c0.14-0.47,0.1-1.02-0.23-1.38c-0.22-0.24-0.54-0.38-0.71-0.66c-0.21-0.34-0.13-0.78,0.05-1.13c0.19-0.35,0.46-0.64,0.68-0.97
	c0.49-0.76,0.62-1.75,0.33-2.61c-0.15-0.45-0.41-0.88-0.4-1.35c0.01-0.68,0.56-1.23,1.14-1.6c0.58-0.36,1.23-0.63,1.7-1.13
	c0.42-0.45,0.63-1.05,0.92-1.59c0.29-0.54,0.71-1.08,1.31-1.22c0.45-0.11,0.92,0.03,1.38,0.02c1.01-0.03,1.87-0.77,2.44-1.61
	c0.32-0.48,0.59-1,1.01-1.4s1.07-0.63,1.58-0.37c0.37,0.18,0.61,0.58,0.99,0.73c0.52,0.22,1.12-0.09,1.52-0.48s0.71-0.89,1.18-1.2
	c0.47-0.31,1.2-0.36,1.52,0.1c0.26,0.36,0.23,0.97,0.65,1.11c0.32,0.11,0.63-0.16,0.9-0.37c0.61-0.47,1.4-0.68,2.16-0.58
	c0.02,0.39,0.05,0.78,0.07,1.18c0.01,0.16,0.03,0.33,0.14,0.44c0.35,0.33,0.88-0.36,1.34-0.24c0.26,0.07,0.39,0.38,0.35,0.64
	s-0.18,0.5-0.3,0.74c-0.39,0.76-0.54,1.62-0.66,2.47c-0.26,1.8-0.39,3.65,0.02,5.42s1.46,3.46,3.08,4.29"/>
<path class="st1" d="M31.64,48.72c-2.84-0.12-5.67-0.56-8.42-1.32c-0.81-0.22-1.63-0.48-2.28-1.02c0.2-0.3,0.41-0.61,0.51-0.96
	s0.07-0.77-0.17-1.05c-0.16-0.18-0.39-0.29-0.51-0.5c-0.15-0.25-0.09-0.59,0.04-0.86c0.13-0.26,0.33-0.48,0.49-0.73
	c0.35-0.58,0.44-1.33,0.24-1.98c-0.11-0.34-0.29-0.67-0.29-1.03c0.01-0.52,0.4-0.94,0.82-1.21s0.89-0.47,1.22-0.85
	c0.3-0.34,0.45-0.79,0.66-1.2c0.21-0.41,0.51-0.82,0.94-0.92c0.32-0.08,0.66,0.02,0.99,0.01c0.73-0.02,1.34-0.58,1.75-1.22
	c0.23-0.36,0.42-0.76,0.73-1.06c0.3-0.3,0.76-0.47,1.14-0.28c0.26,0.14,0.44,0.44,0.71,0.56c0.37,0.16,0.8-0.07,1.09-0.37
	c0.29-0.3,0.51-0.68,0.85-0.91c0.34-0.24,0.86-0.27,1.09,0.08c0.18,0.27,0.17,0.73,0.47,0.84c0.23,0.08,0.45-0.12,0.65-0.28
	c0.43-0.35,1-0.51,1.55-0.44c0.02,0.3,0.03,0.6,0.05,0.89c0.01,0.12,0.02,0.25,0.1,0.33c0.25,0.25,0.63-0.27,0.96-0.18
	c0.18,0.05,0.28,0.29,0.25,0.49c-0.02,0.2-0.13,0.38-0.22,0.56c-0.28,0.58-0.39,1.23-0.48,1.87c-0.18,1.36-0.28,2.77,0.02,4.11
	s1.05,2.62,2.21,3.26"/>
<path class="st2" d="M29.6,37.85c0.22,2.11,0.84,4.29,2.32,5.81"/>
<path class="st2" d="M34.13,36.91c-0.28,1.76,0.03,3.61,0.89,5.17"/>
<path class="st1" d="M37.78,37.18c-0.2-1.9,0.69-3.74,1.72-5.34c0.35-0.54,0.72-1.08,1.2-1.52c0.68-0.64,1.54-1.06,2.38-1.46
	c0.65-0.32,1.32-0.64,2.04-0.74c0.6-0.09,1.21-0.02,1.82,0.06c2.45,0.33,5.01,0.91,6.79,2.62c1.71,1.64,2.44,4.23,1.83,6.51"/>
<path class="st1" d="M41.23,44.22c-1.79,0.06-3.6,0.32-5.25,1.02c-1.65,0.7-3.14,1.88-3.98,3.47c-0.99,1.88-0.99,4.15-0.53,6.23
	c0.18,0.79,0.42,1.58,0.83,2.28c0.73,1.26,1.95,2.18,3.31,2.71s2.83,0.7,4.28,0.66c2.82-0.06,5.63-0.86,8.06-2.29"/>
<path class="st1" d="M35.81,64.33c-1.8-0.24-3.43-1.51-4.09-3.21c-0.29-0.76-0.4-1.57-0.51-2.38c-0.23-1.72-0.45-3.44-0.43-5.18"/>
<path class="st2" d="M51.48,60.64c0.38-0.39,0.54-0.99,0.4-1.53"/>
<path class="st1" d="M60.72,42.79c0.55,1.61,1.28,3.41,1.29,5.13c0.01,1.44-0.88,2.45-1.95,3.3c-1.44,1.15-2.99,2.23-4.77,2.7
	c-1.65,0.44-3.39,0.31-5.09,0.08c-0.56-0.08-1.12-0.17-1.64-0.38c-0.6-0.24-1.13-0.63-1.61-1.06c-2.03-1.77-3.41-4.25-3.93-6.89
	c-0.22-1.11-0.46-2.64-0.2-3.76c0.27-1.14,1.58-2.31,2.47-3.01c2.18-1.73,5.11-2.47,7.85-2.01c0.54,0.09,1.08,0.23,1.59,0.43
	c0.83,0.32,1.59,0.81,2.33,1.31c0.52,0.36,1.03,0.72,1.54,1.1c0.44,0.33,0.88,0.68,1.21,1.11C60.25,41.42,60.49,42.11,60.72,42.79z"
	/>
<path class="st1" d="M54.77,58.9c-1.97,0.04-3.94-0.18-5.85-0.64c-1.63-0.4-3.29-1.02-4.41-2.27c-0.33-0.37-0.6-0.78-0.88-1.19
	c-0.39-0.59-0.79-1.19-1.18-1.78c-0.29-0.44-0.59-0.88-0.76-1.38c-0.2-0.58-0.22-1.2-0.24-1.81c-0.09-2.82-0.14-5.82,1.3-8.25"/>
<path class="st2" d="M61.11,53.5c0.67-1.53,1.36-3.17,1.07-4.81"/>
<path class="st1" d="M36.34,27.66c0.11-0.76-0.08-1.53,0.04-2.29c0.11-0.76,0.73-1.55,1.48-1.43c0.38,0.06,0.7,0.36,0.87,0.7
	c0.06,0.11,0.13,0.25,0.26,0.24c0.09-0.01,0.14-0.1,0.18-0.17c0.27-0.56,0.25-1.21,0.36-1.82c0.11-0.61,0.42-1.27,1.01-1.45
	c0.43-0.13,0.94,0.02,1.32-0.23c0.44-0.29,0.43-0.94,0.72-1.39c0.32-0.49,1.01-0.66,1.56-0.46c0.55,0.2,0.95,0.72,1.11,1.28"/>
<path class="st1" d="M38.78,29.47c0.12-0.97-0.08-1.96,0.04-2.92c0.13-0.96,0.81-1.98,1.65-1.82c0.43,0.08,0.78,0.45,0.97,0.9
	c0.06,0.14,0.15,0.32,0.29,0.3c0.1-0.01,0.16-0.12,0.2-0.22c0.3-0.72,0.28-1.54,0.4-2.32c0.12-0.78,0.47-1.62,1.13-1.85
	c0.48-0.17,1.05,0.02,1.47-0.3c0.49-0.37,0.48-1.2,0.8-1.77c0.35-0.63,1.12-0.84,1.73-0.58c0.61,0.26,1.05,0.91,1.23,1.63"/>
<path class="st1" d="M44.61,27.59c0.09-0.63-0.06-1.27,0.03-1.89c0.09-0.63,0.57-1.28,1.16-1.18c0.3,0.05,0.55,0.29,0.68,0.58
	c0.04,0.09,0.1,0.21,0.2,0.2c0.07-0.01,0.11-0.08,0.14-0.14c0.21-0.46,0.2-1,0.28-1.51c0.08-0.51,0.33-1.05,0.79-1.2
	c0.34-0.11,0.74,0.02,1.03-0.19c0.34-0.24,0.33-0.78,0.56-1.15c0.25-0.41,0.79-0.55,1.22-0.38s0.74,0.59,0.86,1.06"/>
<path class="st1" d="M48.09,28.72c0.12-0.76-0.08-1.54,0.04-2.3c0.12-0.76,0.77-1.56,1.57-1.44c0.41,0.06,0.74,0.36,0.93,0.71
	c0.06,0.11,0.14,0.25,0.27,0.24c0.09-0.01,0.15-0.1,0.19-0.17c0.28-0.57,0.27-1.22,0.38-1.83s0.44-1.28,1.08-1.46
	c0.46-0.13,1,0.02,1.4-0.23c0.47-0.3,0.46-0.95,0.76-1.4c0.34-0.49,1.07-0.66,1.66-0.46s1,0.72,1.18,1.29"/>
<path class="st1" d="M51.65,28.8c0.71-1.25,1.52-2.43,2.43-3.54c0.04-0.05,0.1-0.11,0.17-0.11c0.09,0,0.14,0.11,0.2,0.18
	c0.19,0.24,0.61,0.13,0.79-0.12c0.18-0.25,0.2-0.57,0.27-0.87c0.18-0.79,0.71-1.5,1.42-1.89c0.61-0.34,1.53-0.37,1.89,0.23
	c0.12,0.19,0.16,0.41,0.2,0.63c0.09,0.5,0.18,0.99,0.27,1.49"/>
<path class="st1" d="M54.06,31.05c1.42-1.98,2.98-3.85,4.67-5.59c0.35-0.36,0.71-0.72,1.18-0.89c0.47-0.17,1.07-0.09,1.35,0.32
	c0.23,0.33,0.21,0.76,0.27,1.16c0.06,0.4,0.32,0.84,0.72,0.84c0.33,0,0.57-0.3,0.87-0.42c0.67-0.28,1.35,0.34,1.82,0.9
	c0.19,0.23,0.39,0.47,0.51,0.74c0.1,0.22,0.16,0.46,0.34,0.62c0.23,0.2,0.57,0.18,0.84,0.05c0.27-0.13,0.48-0.35,0.69-0.57
	c0.48-0.48,1.16-0.96,1.79-0.7c0.39,0.16,0.64,0.57,0.71,0.99c0.07,0.42,0.01,0.85-0.06,1.27c1.85,0.12,3.48,1.73,3.64,3.58"/>
<path class="st1" d="M69.83,47.41c-0.62-0.36-0.97-1.1-0.99-1.82c-0.02-0.72,0.25-1.43,0.62-2.04c0.65-1.06,1.65-1.9,2.81-2.37
	c-1.67-0.66-2.36-2.88-1.7-4.55c0.66-1.67,2.35-2.77,4.11-3.16c1.25-0.28,2.62-0.23,3.71,0.44c1.09,0.67,1.78,2.06,1.39,3.27
	c1.33-0.74,2.98-1.13,4.39-0.56s2.34,2.39,1.58,3.72c-0.29,0.52-0.79,0.9-1.12,1.39c1.41,0.23,2.77,0.75,3.97,1.54
	c0.83,0.54,1.62,1.25,1.93,2.2c0.49,1.46-0.31,3.1-1.52,4.04s-2.75,1.34-4.25,1.67c0.9,0.19,1.77,0.47,2.6,0.86
	c0.36,0.17,0.73,0.37,0.95,0.7c0.3,0.48,0.21,1.1,0.07,1.65c-0.21,0.78-0.5,1.53-0.87,2.24c-0.54,1.02-1.23,1.94-1.93,2.86
	c-0.33,0.43-0.65,0.87-0.98,1.3c-0.43,0.57-0.87,1.15-1.41,1.63c-0.83,0.73-1.9,1.19-3.01,1.27c-0.33,0.02-0.66,0.01-0.97-0.1
	c-1.09-0.4-1.37-1.83-2.26-2.57c-1.21-1-3.02-0.41-4.44,0.26c-2.26,1.08-4.46,2.28-6.6,3.59c0.24-0.49,0.09-1.1-0.25-1.52
	s-0.83-0.69-1.33-0.9c-0.44-0.18-0.97-0.31-1.37-0.05c-0.34,0.22-0.47,0.66-0.44,1.05c0.05,0.86,0.73,1.6,1.54,1.88
	c0.81,0.29,1.72,0.17,2.52-0.14"/>
<path class="st1" d="M63.5,61.49c2.73-0.72,4.69-3.05,6.42-5.28c0.89-1.15,1.77-2.32,2.46-3.61c0.59-1.11,1.02-2.29,1.45-3.46
	c0.37-0.99,0.73-1.99,1.1-2.98"/>
<path class="st1" d="M75.25,52.1c-0.33,0.6-0.67,1.2-1,1.79c1.26-0.66,2.51-1.36,3.72-2.1c-0.66,0.28-1.35,0.49-2.05,0.62
	c-0.15,0.03-0.3,0.05-0.44,0c-0.14-0.05-0.26-0.19-0.23-0.34"/>
<path class="st1" d="M79.61,55.84c0.05,0.64,0.02,1.29-0.09,1.92c-0.02,0.11-3.12-0.13-3.35-0.28
	C77.12,56.72,78.47,56.25,79.61,55.84z"/>
<path class="st2" d="M72.92,49.17c-0.54,0.06-1.1,0.08-1.59-0.15s-0.84-0.83-0.63-1.33c-0.4-0.12-0.87,0.11-1.22-0.11
	c-0.13-0.08-0.22-0.2-0.3-0.33c-0.6-1.04-0.3-2.41,0.43-3.36c0.73-0.95,1.81-1.56,2.88-2.09"/>
<path class="st1" d="M62.06,50.78c0.65-0.28,1.16-0.82,1.53-1.43c0.37-0.61,0.6-1.28,0.81-1.96c0.08-0.25,0.16-0.51,0.13-0.77
	c-0.03-0.27-0.18-0.52-0.35-0.74c-0.61-0.8-1.65-1.36-2.63-1.12"/>
<path class="st1" d="M63.21,44.15c0.72-0.05,1.43-0.24,2.15-0.18c0.72,0.06,1.48,0.47,1.66,1.17c0.11,0.43-0.03,0.88-0.19,1.29
	c-0.6,1.45-1.68,2.71-3.03,3.51"/>
<path class="st0" d="M66.12,43.25c0.61-0.09,1.27,0.05,1.76,0.43s0.79,1.02,0.71,1.64c-0.06,0.49-0.33,0.93-0.56,1.37
	c-0.25,0.5-0.45,1.03-0.74,1.52c-0.29,0.48-0.69,0.93-1.22,1.12"/>
<path class="st2" d="M46.24,42.79c-0.08-0.59-0.11-1.22,0.14-1.77c0.17-0.36,0.45-0.66,0.74-0.94c0.34-0.32,0.71-0.6,1.09-0.86
	c0.34-0.23,0.71-0.44,1.11-0.51s0.86,0.03,1.13,0.34c0.16,0.18,0.24,0.41,0.3,0.64c0.41,1.47,0.13,3.88-1.24,4.84
	C48.08,45.56,46.44,44.29,46.24,42.79z"/>
<path class="st2" d="M52.74,44.22c1.2,0.18,2.43,0.03,3.62-0.24c0.67-0.16,1.4-0.41,1.71-1.02c0.24-0.47,0.17-1.06-0.07-1.54
	c-0.24-0.48-0.62-0.86-1-1.23c-0.44-0.43-0.9-0.87-1.49-1.05c-1.44-0.45-2.03,0.34-2.51,1.58C52.86,41.06,52.16,44.13,52.74,44.22z"
	/>
<path class="st2" d="M47.91,47.09c-0.35,0.1-0.74,0.23-0.93,0.55c-0.13,0.21-0.14,0.47-0.16,0.71c-0.03,0.54-0.05,1.12,0.25,1.57
	c0.19,0.29,0.49,0.49,0.78,0.67c0.24,0.15,0.48,0.31,0.75,0.39c0.27,0.08,0.55,0.08,0.83,0.08c0.45,0,0.98-0.04,1.26-0.39
	c0.13-0.16,0.18-0.37,0.23-0.57c0.19-0.72,1.08-3.01,0.36-3.55C50.61,46.03,48.62,46.89,47.91,47.09z"/>
<path class="st2" d="M54.9,47.24c-0.3,0.45-0.43,0.98-0.51,1.51c-0.09,0.6-0.12,1.26,0.22,1.77c0.33,0.49,0.96,0.73,1.55,0.67
	c0.59-0.06,1.13-0.38,1.54-0.8c0.3-0.31,0.55-0.69,0.72-1.09c0.18-0.43,0.27-0.91,0.19-1.38c-0.1-0.57-0.45-1.09-0.95-1.38
	C56.69,45.97,55.51,46.33,54.9,47.24z"/>
<path class="st2" d="M36.68,47.21c-0.72,0.62-1.15,1.55-1.24,2.5c-0.04,0.38-0.02,0.78,0.14,1.13c0.19,0.44,0.59,0.76,1.03,0.95
	c0.44,0.19,0.93,0.24,1.4,0.24c0.46,0,0.94-0.05,1.3-0.34c0.37-0.3,0.53-0.78,0.64-1.25c0.13-0.56,0.2-1.12,0.23-1.69
	c0.02-0.37,0.02-0.75-0.1-1.1C39.54,46.03,37.78,46.26,36.68,47.21z"/>
<path class="st2" d="M35.95,55.16c-0.12,0.33-0.11,0.7-0.1,1.05c0.01,0.14,0.01,0.29,0.08,0.41c0.05,0.09,0.14,0.16,0.22,0.23
	c0.51,0.39,1.08,0.69,1.65,0.98c0.37,0.19,0.75,0.39,1.16,0.47c0.41,0.08,0.87,0.05,1.21-0.2c0.31-0.22,0.5-0.6,0.57-0.97
	c0.07-0.38,0.05-0.77,0.03-1.15c-0.04-0.67-0.08-1.35-0.12-2.02c0-0.04-0.01-0.08-0.03-0.11c-0.04-0.05-0.1-0.06-0.17-0.06
	C39.17,53.7,36.54,53.57,35.95,55.16z"/>
<path class="st2" d="M42.51,32.06c-0.53,0.25-0.76,0.87-0.91,1.44c-0.21,0.8-0.34,1.73,0.17,2.38c0.39,0.51,1.11,0.7,1.73,0.55
	c0.62-0.16,1.14-0.62,1.43-1.19c0.3-0.58,0.39-1.28,0.17-1.89C44.76,32.43,43.47,31.6,42.51,32.06z"/>
<path class="st2" d="M48.3,36.52c-0.07-0.79,0.02-1.6,0.34-2.32s0.88-1.35,1.6-1.68c0.23-0.1,0.48-0.18,0.73-0.15
	c0.58,0.07,0.94,0.67,1.15,1.21c0.35,0.88,0.56,1.81,0.64,2.75"/>
<path class="st2" d="M44.62,38.62c-0.4-0.32-0.91-0.46-1.42-0.55c-0.37-0.06-0.77-0.09-1.1,0.08c-0.46,0.23-0.67,0.77-0.78,1.27
	c-0.12,0.55-0.17,1.12-0.06,1.67s0.41,1.08,0.88,1.39"/>
<path class="st2" d="M44.34,32.4c-0.3,0.13-0.45,0.52-0.31,0.81s0.54,0.43,0.83,0.28c0.05-0.09,0.03-0.21-0.04-0.28"/>
<path class="st2" d="M44.89,34.67c-0.17-0.16-0.48-0.13-0.63,0.05c-0.15,0.18-0.14,0.47,0.01,0.65c0.1,0.12,0.25,0.19,0.41,0.19"/>
<path class="st2" d="M49.12,33.56c0.05,0.14,0.1,0.28,0.2,0.38c0.1,0.1,0.28,0.14,0.39,0.05c0.06-0.05,0.09-0.13,0.11-0.21
	c0.08-0.27,0.09-0.55,0.04-0.82"/>
<path class="st2" d="M48.57,34.45c0.29,0.14,0.52,0.41,0.6,0.73c0.01,0.06,0.02,0.12-0.01,0.17c-0.02,0.04-0.07,0.06-0.12,0.08
	c-0.2,0.07-0.43,0.08-0.64,0.03"/>
<path class="st2" d="M43.3,38.78c-0.15-0.18-0.49-0.12-0.6,0.09s-0.02,0.49,0.16,0.64c0.15,0.12,0.39,0.17,0.54,0.05
	c0.15-0.12,0.16-0.35,0.08-0.53c-0.08-0.17-0.23-0.3-0.38-0.42"/>
<path class="st2" d="M50.2,41.39c-0.17-0.19-0.52-0.08-0.62,0.15s0,0.51,0.17,0.7c0.15,0.17,0.39,0.29,0.61,0.23
	c0.15-0.26,0.31-0.54,0.27-0.84c-0.04-0.3-0.41-0.55-0.65-0.37"/>
<path class="st2" d="M49.62,43.4c-0.28-0.09-0.56,0.29-0.44,0.56c0.12,0.27,0.52,0.34,0.76,0.16s0.32-0.52,0.23-0.8
	c-0.29-0.13-0.61-0.17-0.92-0.14"/>
<path class="st2" d="M53.87,41.23c-0.26-0.09-0.56,0.15-0.54,0.42c0.03,0.27,0.37,0.45,0.61,0.31c0.24-0.14,0.21-0.59-0.06-0.64"/>
<path class="st2" d="M53.5,43.29c-0.25,0-0.45,0.28-0.37,0.52c0.07,0.24,0.4,0.35,0.6,0.21c0.2-0.14,0.21-0.48,0.02-0.64"/>
<path class="st2" d="M49.19,47.12c-0.22-0.14-0.56,0.01-0.61,0.27c-0.04,0.26,0.23,0.51,0.49,0.45c0.25-0.06,0.38-0.42,0.21-0.63"/>
<path class="st2" d="M51.09,47.42c-0.22-0.01-0.45,0.07-0.63,0.2c-0.05,0.04-0.1,0.08-0.1,0.14c-0.01,0.06,0.02,0.11,0.04,0.16
	c0.1,0.21,0.29,0.46,0.51,0.39c0.22-0.07,0.24-0.36,0.21-0.59"/>
<path class="st2" d="M55.51,48.54c-0.2-0.05-0.45-0.08-0.58,0.08c-0.15,0.2,0.04,0.48,0.25,0.62c0.07,0.05,0.14,0.09,0.22,0.1
	c0.16,0.01,0.3-0.13,0.35-0.28c0.05-0.16,0.02-0.32-0.01-0.48"/>
<path class="st2" d="M56.41,46.69c-0.26-0.14-0.61,0.17-0.51,0.44c0.1,0.2,0.31,0.34,0.53,0.32c0.22-0.02,0.42-0.22,0.41-0.44
	c-0.01-0.22-0.27-0.4-0.47-0.31"/>
<path class="st2" d="M39.55,49.02c-0.19,0-0.37,0.01-0.56,0.01c-0.04,0.19,0,0.4,0.12,0.55c0.13,0.15,0.36,0.2,0.52,0.09
	c0.16-0.11,0.18-0.39,0.01-0.49"/>
<path class="st2" d="M39.17,50.66c-0.29-0.06-0.62,0.21-0.59,0.51c0.03,0.3,0.44,0.49,0.68,0.3c0.24-0.18,0.13-0.65-0.17-0.69"/>
<path class="st2" d="M38.87,54.28c-0.28-0.19-0.71-0.12-0.87,0.18c-0.16,0.29,0.06,0.73,0.4,0.74c0.21,0,0.4-0.15,0.45-0.35
	c0.05-0.2-0.05-0.43-0.23-0.53"/>
<path class="st2" d="M40.25,54.81c-0.22,0.03-0.42,0.2-0.46,0.41c-0.04,0.22,0.1,0.46,0.31,0.51c0.22,0.04,0.45-0.15,0.43-0.37"/>
<path class="st1" d="M56.45,64.27c1.57,0.14,3.18-0.59,4.12-1.86c0.19-0.25,0.35-0.53,0.58-0.74c0.24-0.21,0.53-0.34,0.82-0.47
	c3.11-1.44,4.39-4.56,7.46-6.07c0.79-0.39,1.36-1.14,1.65-1.97s0.3-1.73,0.17-2.6c-0.12-0.75-0.39-1.55-1.04-1.95
	c-0.98-0.62-2.16-0.06-3.14,0.2c-1.01,0.26-1.09,0.89-1.86,1.49c-0.48,0.38-1.49,0.78-2.09,0.88c-0.24,0.04-0.43,0.2-0.61,0.36
	c-0.6,0.56-0.92,1.55-1.59,1.99c-0.35,0.23-0.84,0.21-1.22,0.38c-0.46,0.21-0.8,0.58-1.21,0.86c-0.63,0.44-1.31,0.71-1.87,1.26
	c-1.7,1.67-2.62,4.1-2.46,6.47"/>
<path class="st1" d="M59.11,54.68c0.79,0.12,1.44,0.72,1.79,1.43s0.43,1.53,0.43,2.32c0,1.12-0.17,2.24-0.34,3.35"/>
<path class="st1" d="M60.24,53.91c0.79-0.05,1.64-0.08,2.28,0.39c0.73,0.54,0.9,1.56,1,2.46c0.1,0.97,0.19,1.98-0.2,2.87
	c-0.32,0.73-0.92,1.28-1.51,1.82"/>
<path class="st1" d="M63.32,51.15c0.73,0.47,1.36,1.11,1.68,1.92c0.16,0.41,0.23,0.84,0.3,1.28c0.25,1.53,0.48,3.14-0.07,4.59"/>
<path class="st1" d="M65.62,50.1c0.75,0.7,1.53,1.44,1.85,2.42c0.16,0.49,0.19,1.01,0.19,1.52c0,0.85-0.07,1.71-0.34,2.51"/>
<path class="st1" d="M66.95,48.91c0.7,0.36,1.37,0.8,1.89,1.39c0.52,0.59,0.87,1.36,0.85,2.15c-0.01,0.5-0.17,0.98-0.33,1.45
	c-0.13,0.39-0.26,0.78-0.39,1.17"/>
<path class="st1" d="M29.67,56.05c-0.54,0.33-1.33,0.12-1.65-0.43c-0.24-0.43-0.21-0.97-0.49-1.38"/>
<path class="st1" d="M30.4,58.91c-0.92,0.3-1.86,0.6-2.78,0.34c-0.92-0.26-1.83-1.22-2.04-2.64c-0.14-0.93,0.02-1.96-0.22-2.85"/>
<path class="st1" d="M23.87,52.41c0.45,2.34,0.69,4.95,1.79,6.67c0.7,1.09,1.66,1.66,2.63,1.88s1.95,0.1,2.92-0.01
	c-1.45,0-2.33,1.45-3.78,1.45"/>
<path class="st1" d="M55.91,33.9c1.6-0.14,3.12-0.37,4.75-0.3c1,0.04,2.09,0.2,2.74,0.95c0.31,0.36,0.49,0.83,0.88,1.08
	c0.53,0.34,1.22,0.18,1.84,0.1c0.62-0.09,1.4-0.01,1.67,0.56c0.24,0.5-0.06,1.11,0.1,1.64c0.13,0.44,0.56,0.75,0.63,1.2
	c0.08,0.49-0.27,0.93-0.62,1.28c-1.22,1.26-2.61,2.35-4.12,3.24"/>
<path class="st1" d="M55.61,35.47c1.47-0.05,2.94-0.09,4.4-0.14c0.54-0.02,1.1-0.03,1.61,0.16s0.96,0.65,0.97,1.19
	c0.01,0.47-0.26,1.06,0.13,1.35c0.13,0.1,0.3,0.11,0.46,0.15c0.89,0.23,1.36,1.21,1.61,2.09c0.21,0.74,0.35,1.56,0.04,2.27
	c-0.49,1.11-1.86,1.51-2.67,2.41"/>
<path class="st1" d="M56.69,64.3c-0.43,0.04-0.87-0.08-1.22-0.33c-0.28-0.21-0.5-0.5-0.81-0.67"/>
<path class="st1" d="M61.25,66.51c-4.15,0.32-8.33,0.36-12.49,0.11"/>
<path class="st2" d="M58.07,58.07c-0.01,0.12,0,0.25,0.06,0.35c0.06,0.1,0.2,0.17,0.31,0.1c0.07-0.04,0.1-0.13,0.13-0.21
	c0.07-0.26,0.19-1.14-0.09-1.32C58.2,56.82,58.08,57.89,58.07,58.07z"/>
<path class="st2" d="M56.46,58.71c0.07,0.21,0.2,0.41,0.39,0.54c0.03,0.02,0.07,0.04,0.11,0.03c0.03-0.01,0.05-0.03,0.06-0.05
	c0.11-0.13,0.16-0.32,0.07-0.46c-0.04-0.08-0.11-0.13-0.18-0.19c-0.18-0.15-0.33-0.35-0.5-0.5C56.3,58.22,56.41,58.55,56.46,58.71z"
	/>
<path class="st2" d="M55.3,61.03c-0.06,0.05-0.12,0.11-0.11,0.19c0.01,0.06,0.06,0.1,0.12,0.12c0.06,0.01,0.12,0,0.18-0.01
	c0.23-0.05,0.87-0.21,0.72-0.57C56.06,60.37,55.48,60.88,55.3,61.03z"/>
<path class="st2" d="M57.9,61.75c-0.02,0.23-0.04,0.49,0.08,0.69c0.1,0.18,0.31,0.3,0.52,0.3c0.03,0,0.05,0,0.08-0.01
	c0.05-0.02,0.07-0.08,0.09-0.13c0.06-0.25-0.07-0.5-0.2-0.72c-0.07-0.12-0.24-0.58-0.4-0.59C57.86,61.27,57.91,61.6,57.9,61.75z"/>
<path class="st2" d="M60.34,60.74c0.04-0.15-0.09-0.29-0.22-0.38c-0.2-0.13-0.91-0.55-0.88-0.05
	C59.27,60.77,60.01,60.79,60.34,60.74z"/>
<path class="st2" d="M61.86,55.32c0.13-0.04,0.3,0,0.35,0.13c0.03,0.09,0,0.19-0.06,0.26c-0.06,0.07-0.15,0.12-0.23,0.17
	C61.53,56.09,61.49,55.45,61.86,55.32z"/>
<path class="st2" d="M62.65,58.45c0.08,0.09,0.16,0.21,0.12,0.33c-0.04,0.1-0.16,0.14-0.27,0.13c-0.1-0.02-0.19-0.08-0.28-0.15
	c-0.16-0.13-0.63-0.49-0.4-0.72C62.07,57.81,62.5,58.29,62.65,58.45z"/>
<path class="st2" d="M63.69,52.68c0.08-0.06,0.19-0.08,0.29-0.09c0.02,0,0.03,0,0.05,0.01c0.01,0.01,0.01,0.03,0.01,0.04
	c0.01,0.1,0.02,0.21,0.03,0.31c0.01,0.09,0.02,0.19-0.01,0.28c-0.07,0.21-0.65,0.87-0.81,0.62C63.09,53.61,63.5,52.82,63.69,52.68z"
	/>
<path class="st2" d="M63.77,55.49c0.15-0.01,0.3,0,0.45,0.01c0.04,0,0.08,0.01,0.11,0.03c0.03,0.03,0.04,0.08,0.05,0.12
	c0.01,0.07,0.02,0.14,0.04,0.21c0,0.03,0.01,0.06-0.01,0.08c-0.01,0.01-0.04,0.02-0.06,0.02c-0.26,0.02-0.48-0.19-0.66-0.39"/>
<path class="st2" d="M65.42,53.07c-0.07-0.34,0.1-0.71,0.39-0.9c0.11,0.34-0.05,0.75-0.36,0.93"/>
<path class="st2" d="M66.04,54.4c0.31,0.2,0.52,0.55,0.54,0.92c-0.07,0.07-0.18,0.07-0.26,0.02s-0.14-0.12-0.2-0.2
	c-0.14-0.18-0.28-0.38-0.3-0.61"/>
<path class="st2" d="M67.28,51.3c0.04-0.14,0.22-0.23,0.35-0.17c0.02,0.2,0.02,0.41-0.01,0.61"/>
<path class="st2" d="M68.22,52.86c0.22,0.1,0.25,0.39,0.26,0.63c0,0.06,0,0.11-0.03,0.16c-0.04,0.07-0.13,0.09-0.21,0.09
	c-0.24,0.01-0.49-0.1-0.65-0.28"/>
<path class="st2" d="M69.52,50.42c-0.01-0.18,0.11-0.34,0.24-0.48c0.04-0.04,0.08-0.09,0.14-0.1c0.1-0.01,0.18,0.09,0.18,0.19
	c0,0.1-0.06,0.19-0.12,0.27c-0.15,0.22-0.31,0.43-0.46,0.65"/>
</svg>
